<svg xmlns="http://www.w3.org/2000/svg" viewBox="0 0 512 512" fill="none">
  <title>Gridix App Icon</title>
  <desc>Original Gridix icon combining a database cylinder, grid modules, and a query cursor accent.</desc>
  <defs>
    <linearGradient id="bg" x1="56" y1="44" x2="460" y2="472" gradientUnits="userSpaceOnUse">
      <stop offset="0" stop-color="#262B43"/>
      <stop offset="1" stop-color="#1A1D2E"/>
    </linearGradient>
    <radialGradient id="glow" cx="0" cy="0" r="1" gradientUnits="userSpaceOnUse" gradientTransform="translate(368 132) rotate(139.215) scale(275.981)">
      <stop stop-color="#7DCFFF" stop-opacity="0.28"/>
      <stop offset="1" stop-color="#7DCFFF" stop-opacity="0"/>
    </radialGradient>
    <linearGradient id="cyan" x1="110" y1="100" x2="318" y2="314" gradientUnits="userSpaceOnUse">
      <stop offset="0" stop-color="#7DCFFF"/>
      <stop offset="1" stop-color="#4E8DFF"/>
    </linearGradient>
    <linearGradient id="amber" x1="302" y1="244" x2="352" y2="294" gradientUnits="userSpaceOnUse">
      <stop offset="0" stop-color="#FFB86C"/>
      <stop offset="1" stop-color="#F08A24"/>
    </linearGradient>
    <filter id="shadow" x="72" y="68" width="304" height="324" filterUnits="userSpaceOnUse" color-interpolation-filters="sRGB">
      <feFlood flood-opacity="0" result="BackgroundImageFix"/>
      <feColorMatrix in="SourceAlpha" type="matrix" values="0 0 0 0 0 0 0 0 0 0 0 0 0 0 0 0 0 0 127 0" result="hardAlpha"/>
      <feOffset dy="16"/>
      <feGaussianBlur stdDeviation="16"/>
      <feComposite in2="hardAlpha" operator="out"/>
      <feColorMatrix type="matrix" values="0 0 0 0 0.0392157 0 0 0 0 0.054902 0 0 0 0 0.113725 0 0 0 0.42 0"/>
      <feBlend mode="normal" in2="BackgroundImageFix" result="effect1_dropShadow_1_1"/>
      <feBlend mode="normal" in="SourceGraphic" in2="effect1_dropShadow_1_1" result="shape"/>
    </filter>
  </defs>

  <rect x="16" y="16" width="480" height="480" rx="110" fill="url(#bg)"/>
  <rect x="16" y="16" width="480" height="480" rx="110" fill="url(#glow)"/>
  <rect x="28" y="28" width="456" height="456" rx="98" stroke="#3B4261" stroke-width="2"/>

  <g opacity="0.18" stroke="#5B648C" stroke-width="2">
    <path d="M76 148H176"/>
    <path d="M76 188H216"/>
    <path d="M76 228H176"/>
    <path d="M336 334H436"/>
    <path d="M296 374H436"/>
    <path d="M336 414H436"/>
    <path d="M116 108V248"/>
    <path d="M156 108V228"/>
    <path d="M356 294V434"/>
    <path d="M396 334V434"/>
  </g>

  <g filter="url(#shadow)">
    <rect x="96" y="106" width="42" height="42" rx="12" fill="url(#cyan)"/>
    <rect x="156" y="72" width="42" height="42" rx="12" fill="#8BE9FD"/>
    <rect x="156" y="132" width="42" height="42" rx="12" fill="#6CB8FF"/>
    <rect x="216" y="106" width="42" height="42" rx="12" fill="#5B9CFF"/>

    <path d="M188 194C188 176.327 219.34 162 258 162C296.66 162 328 176.327 328 194" stroke="url(#cyan)" stroke-width="18" stroke-linecap="round"/>
    <path d="M188 194V302C188 319.673 219.34 334 258 334C296.66 334 328 319.673 328 302V194" stroke="url(#cyan)" stroke-width="18" stroke-linecap="round" stroke-linejoin="round"/>
    <path d="M188 248C188 265.673 219.34 280 258 280C296.66 280 328 265.673 328 248" stroke="url(#cyan)" stroke-width="18" stroke-linecap="round"/>
    <path d="M258 248H334" stroke="url(#cyan)" stroke-width="18" stroke-linecap="round"/>
    <path d="M334 248V286" stroke="url(#cyan)" stroke-width="18" stroke-linecap="round"/>

    <rect x="320" y="232" width="34" height="34" rx="10" transform="rotate(45 320 232)" fill="url(#amber)"/>
    <circle cx="336" cy="160" r="9" fill="#FFB86C"/>
  </g>
</svg>
